#!OML:ASF H:\Pregnant\Project 1\Capture day 1\Session 1\femalepreg.ASF
:FULLY-SPECIFIED
:DEGREES
1502
root 4.97453 8.28603 17.1763 -114.822 2.75612 -175.324
lowerback 3.40101 2.56328 -7.39221
upperback -8.34503 3.69264 3.12256
thorax -11.6564 2.8912 7.00994
lowerneck -56.6849 10.6098 0.957566
upperneck -1.04059 7.28246 -6.82645
head 6.4343 -0.224965 -1.92799
rclavicle 1.27222e-014 -1.19271e-015
rhumerus 12.0263 26.9515 -86.9737
rradius 22.1836
rwrist 30.9303
rhand -51.9989 358.232
rfingers 7.12502
rthumb -24.5064 -30.22
lclavicle 1.27222e-014 -1.19271e-015
lhumerus 14.1015 -29.4768 82.1366
lradius 22.0008
lwrist 8.0773
lhand -49.6661 -55.1989
lfingers 7.12502
lthumb -22.2686 -26.4619
rfemur -167.174 13.8662 34.5108
rtibia 99.072
rfoot 6.7514 8.43886
rtoes 3.93185
lfemur 6.10268 -15.793 -19.2762
ltibia 1.90833e-014
lfoot -25.7521 -2.21193
ltoes -13.9988
1503
root 4.97501 8.28374 17.1782 -114.821 2.76746 -175.319
lowerback 3.38961 2.56309 -7.38489
upperback -8.328 3.69289 3.12938
thorax -11.6297 2.88867 7.01416
lowerneck -56.6976 10.6453 1.0096
upperneck -1.01653 7.29553 -6.82903
head 6.44559 -0.219402 -1.93421
rclavicle -2.38542e-015 7.95139e-016
rhumerus 12.0605 26.9559 -86.9705
rradius 22.1831
rwrist 30.8903
rhand -52.0404 358.271
rfingers 7.12502
rthumb -24.5463 -30.1759
lclavicle -2.38542e-015 7.95139e-016
lhumerus 14.1362 -29.4358 82.116
lradius 21.9996
lwrist 8.11796
lhand -49.6574 -55.2619
lfingers 7.12502
lthumb -22.2603 -26.5239
rfemur -167.182 13.8946 34.5379
rtibia 99.0641
rfoot 6.77005 8.46442
rtoes 3.9676
lfemur 6.10962 -15.7869 -19.2814
ltibia 4.77083e-014
lfoot -25.7953 -2.21951
ltoes -13.9695
1504
root 4.97546 8.28155 17.1794 -114.825 2.7839 -175.315
lowerback 3.37958 2.56454 -7.38455
upperback -8.31162 3.69467 3.13592
thorax -11.6055 2.88763 7.02177
lowerneck -56.7113 10.6746 1.05285
upperneck -0.987318 7.30773 -6.82595
head 6.45827 -0.212807 -1.9371
rclavicle -3.81667e-014 -3.49861e-014
rhumerus 12.0921 26.9782 -86.9558
rradius 22.1815
rwrist 30.845
rhand -52.0753 358.327
rfingers 7.12502
rthumb -24.5797 -30.1152
lclavicle -3.81667e-014 -3.49861e-014
lhumerus 14.1635 -29.404 82.1002
lradius 22.0023
lwrist 8.15651
lhand -49.6507 -55.3141
lfingers 7.12502
lthumb -22.2538 -26.5753
rfemur -167.183 13.9239 34.5685
rtibia 99.0619
rfoot 6.78484 8.49286
rtoes 4.02536
lfemur 6.12091 -15.7787 -19.2938
ltibia 9.54166e-015
lfoot -25.8303 -2.22988
ltoes -13.9485
1505
root 4.97592 8.27936 17.1801 -114.834 2.80745 -175.308
lowerback 3.37184 2.56871 -7.39375
upperback -8.29612 3.69927 3.14287
thorax -11.5853 2.88907 7.03475
lowerneck -56.7269 10.6979 1.08758
upperneck -0.951208 7.3202 -6.81975
head 6.47324 -0.204956 -1.93755
rclavicle -1.90833e-014 -2.3059e-014
rhumerus 12.1211 27.0151 -86.9286
rradius 22.1815
rwrist 30.7954
rhand -52.0868 358.403
rfingers 7.12502
rthumb -24.5907 -30.0372
lclavicle -1.90833e-014 -2.3059e-014
lhumerus 14.1837 -29.3835 82.0892
lradius 22.0096
lwrist 8.18983
lhand -49.6498 -55.3608
lfingers 7.12502
lthumb -22.2529 -26.6219
rfemur -167.179 13.9564 34.6
rtibia 99.0637
rfoot 6.79783 8.52244
rtoes 4.10233
lfemur 6.1384 -15.7662 -19.3149
ltibia 1.90833e-014
lfoot -25.8585 -2.24354
ltoes -13.9264
1506
root 4.97627 8.27642 17.1807 -114.849 2.836 -175.301
lowerback 3.36749 2.57444 -7.41116
upperback -8.28213 3.70545 3.15169
thorax -11.5702 2.89248 7.0541
lowerneck -56.7373 10.7154 1.11368
upperneck -0.914078 7.33232 -6.80998
head 6.48796 -0.195985 -1.93531
rclavicle 4.77083e-015 -3.97569e-015
rhumerus 12.1465 27.0664 -86.8912
rradius 22.18
rwrist 30.7417
rhand -52.0792 358.483
rfingers 7.12502
rthumb -24.5835 -29.9583
lclavicle 4.77083e-015 -3.97569e-015
lhumerus 14.1931 -29.3591 82.0903
lradius 22.0163
lwrist 8.205
lhand -49.6532 -55.3984
lfingers 7.12502
lthumb -22.2562 -26.66
rfemur -167.175 13.9906 34.631
rtibia 99.071
rfoot 6.81647 8.55379
rtoes 4.19155
lfemur 6.16758 -15.7504 -19.3439
ltibia 6.67916e-014
lfoot -25.8864 -2.25279
ltoes -13.918
1507
root 4.97659 8.27324 17.181 -114.869 2.8698 -175.289
lowerback 3.36769 2.58255 -7.43601
upperback -8.27004 3.71432 3.16228
thorax -11.5616 2.89841 7.07906
lowerneck -56.745 10.7294 1.13605
upperneck -0.874668 7.34474 -6.80318
head 6.50357 -0.186733 -1.9336
rclavicle -6.36111e-015 -2.74323e-014
rhumerus 12.1612 27.108 -86.8577
rradius 22.1778
rwrist 30.7012
rhand -52.0511 358.576
rfingers 7.12502
rthumb -24.5565 -29.8694
lclavicle -6.36111e-015 -2.74323e-014
lhumerus 14.1907 -29.3263 82.1054
lradius 22.0197
lwrist 8.20116
lhand -49.6542 -55.4364
lfingers 7.12502
lthumb -22.2572 -26.698
rfemur -167.165 14.0288 34.6624
rtibia 99.0814
rfoot 6.83178 8.58747
rtoes 4.27495
lfemur 6.20499 -15.729 -19.3792
ltibia 6.36111e-015
lfoot -25.9121 -2.2616
ltoes -13.9111
1508
root 4.97679 8.2694 17.1813 -114.891 2.90522 -175.274
lowerback 3.37027 2.59173 -7.4651
upperback -8.26039 3.72489 3.17607
thorax -11.5583 2.90627 7.10961
lowerneck -56.7507 10.7418 1.15679
upperneck -0.833003 7.35839 -6.80252
head 6.52037 -0.177433 -1.93385
rclavicle 3.02153e-014 1.59028e-014
rhumerus 12.1649 27.1398 -86.8299
rradius 22.1728
rwrist 30.6668
rhand -52.0147 358.68
rfingers 7.12502
rthumb -24.5216 -29.7699
lclavicle 3.02153e-014 1.59028e-014
lhumerus 14.1775 -29.2775 82.1379
lradius 22.0155
lwrist 8.17552
lhand -49.651 -55.461
lfingers 7.12502
lthumb -22.2541 -26.7223
rfemur -167.157 14.0703 34.6954
rtibia 99.0963
rfoot 6.84898 8.624
rtoes 4.34925
lfemur 6.25092 -15.704 -19.4174
ltibia 2.22639e-014
lfoot -25.9403 -2.26495
ltoes -13.9195
1509
root 4.97683 8.26463 17.1816 -114.915 2.94213 -175.257
lowerback 3.37302 2.60149 -7.49705
upperback -8.25311 3.73657 3.19165
thorax -11.5586 2.91546 7.14356
lowerneck -56.7563 10.7528 1.17553
upperneck -0.790617 7.37284 -6.80688
head 6.53776 -0.168435 -1.93567
rclavicle -3.26007e-014 -2.78299e-014
rhumerus 12.1548 27.1615 -86.8138
rradius 22.1668
rwrist 30.62
rhand -51.9921 358.786
rfingers 7.12502
rthumb -24.4999 -29.6665
lclavicle -3.26007e-014 -2.78299e-014
lhumerus 14.1546 -29.2188 82.1837
lradius 22.006
lwrist 8.13983
lhand -49.6488 -55.466
lfingers 7.12502
lthumb -22.252 -26.727
rfemur -167.155 14.1138 34.7275
rtibia 99.1161
rfoot 6.8665 8.6634
rtoes 4.40419
lfemur 6.30634 -15.6767 -19.4583
ltibia 2.22639e-014
lfoot -25.9731 -2.26759
ltoes -13.9263
1510
root 4.97677 8.25932 17.1817 -114.94 2.98058 -175.239
lowerback 3.37373 2.6117 -7.53107
upperback -8.24773 3.74925 3.208
thorax -11.5603 2.92568 7.17942
lowerneck -56.7649 10.7625 1.19154
upperneck -0.746476 7.38799 -6.81524
head 6.55618 -0.159866 -1.93867
rclavicle -7.95139e-015 -1.39149e-014
rhumerus 12.1347 27.1804 -86.8063
rradius 22.1605
rwrist 30.5574
rhand -51.9888 358.877
rfingers 7.12502
rthumb -24.4968 -29.5764
lclavicle -7.95139e-015 -1.39149e-014
lhumerus 14.1254 -29.1517 82.2402
lradius 21.99
lwrist 8.09567
lhand -49.641 -55.4564
lfingers 7.12502
lthumb -22.2445 -26.7165
rfemur -167.157 14.1594 34.7587
rtibia 99.1406
rfoot 6.88513 8.70342
rtoes 4.45601
lfemur 6.36605 -15.6474 -19.501
ltibia 1.59028e-014
lfoot -26.0077 -2.27224
ltoes -13.9262
1511
root 4.97653 8.25344 17.1817 -114.966 3.01989 -175.22
lowerback 3.37338 2.6227 -7.56329
upperback -8.24473 3.76337 3.22265
thorax -11.5641 2.93665 7.21214
lowerneck -56.7734 10.7707 1.20679
upperneck -0.703378 7.40236 -6.82779
head 6.57445 -0.152275 -1.94335
rclavicle -1.19271e-014 -3.61788e-014
rhumerus 12.1013 27.1796 -86.8178
rradius 22.1516
rwrist 30.4896
rhand -52.0134 358.955
rfingers 7.12502
rthumb -24.5203 -29.4955
lclavicle -1.19271e-014 -3.61788e-014
lhumerus 14.0908 -29.0885 82.3011
lradius 21.972
lwrist 8.0501
lhand -49.6377 -55.4246
lfingers 7.12502
lthumb -22.2413 -26.6844
rfemur -167.163 14.2055 34.7892
rtibia 99.1704
rfoot 6.89949 8.74523
rtoes 4.48006
lfemur 6.43146 -15.617 -19.545
ltibia 2.22639e-014
lfoot -26.0443 -2.28158
ltoes -13.9078
1512
root 4.97641 8.24895 17.1801 -114.997 3.06213 -175.198
lowerback 3.37789 2.6361 -7.5952
upperback -8.24366 3.78039 3.23568
thorax -11.5735 2.94923 7.24218
lowerneck -56.7826 10.7734 1.21501
upperneck -0.660902 7.41397 -6.83758
head 6.59209 -0.14554 -1.94645
rclavicle 7.15625e-015 -5.36719e-014
rhumerus 12.0613 27.1961 -86.8294
rradius 22.1428
rwrist 30.3976
rhand -52.0541 358.993
rfingers 7.12502
rthumb -24.5593 -29.452
lclavicle 7.15625e-015 -5.36719e-014
lhumerus 14.048 -29.0311 82.3668
lradius 21.955
lwrist 8.00607
lhand -49.6333 -55.3723
lfingers 7.12502
lthumb -22.2371 -26.6316
rfemur -167.149 14.2516 34.823
rtibia 99.2035
rfoot 6.90031 8.78449
rtoes 4.52189
lfemur 6.49354 -15.5826 -19.5902
ltibia 9.54166e-015
lfoot -26.0711 -2.30274
ltoes -13.8678
1513
root 4.97639 8.24554 17.1773 -115.033 3.10866 -175.174
lowerback 3.38617 2.65148 -7.6263
upperback -8.24555 3.79955 3.24404
thorax -11.5887 2.96285 7.266
lowerneck -56.7907 10.773 1.22266
upperneck -0.618811 7.42283 -6.84818
head 6.6095 -0.139906 -1.95022
rclavicle 7.15625e-015 -2.26615e-014
rhumerus 12.0138 27.2084 -86.8502
rradius 22.1327
rwrist 30.3173
rhand -52.0939 358.997
rfingers 7.12502
rthumb -24.5975 -29.4424
lclavicle 7.15625e-015 -2.26615e-014
lhumerus 13.9954 -28.9923 82.4299
lradius 21.9424
lwrist 7.97003
lhand -49.6331 -55.3233
lfingers 7.12502
lthumb -22.2369 -26.5825
rfemur -167.121 14.2971 34.857
rtibia 99.2396
rfoot 6.89224 8.82046
rtoes 4.58471
lfemur 6.55297 -15.5453 -19.6387
ltibia 2.54444e-014
lfoot -26.0887 -2.33477
ltoes -13.8099
1514
root 4.97631 8.24267 17.1734 -115.073 3.15524 -175.152
lowerback 3.39633 2.66719 -7.65184
upperback -8.24983 3.81923 3.24856
thorax -11.6069 2.97623 7.28211
lowerneck -56.7982 10.7688 1.22663
upperneck -0.579289 7.42852 -6.85651
head 6.62557 -0.135408 -1.95311
rclavicle -3.49861e-014 -9.93923e-015
rhumerus 11.9579 27.2025 -86.8833
rradius 22.1241
rwrist 30.2743
rhand -52.1128 358.978
rfingers 7.12502
rthumb -24.6156 -29.459
lclavicle -3.49861e-014 -9.93923e-015
lhumerus 13.9354 -28.9715 82.4877
lradius 21.9329
lwrist 7.94371
lhand -49.6323 -55.2855
lfingers 7.12502
lthumb -22.2362 -26.5446
rfemur -167.085 14.3384 34.892
rtibia 99.2812
rfoot 6.88011 8.85282
rtoes 4.66978
lfemur 6.61246 -15.5087 -19.6886
ltibia -3.18055e-015
lfoot -26.1009 -2.37087
ltoes -13.76
1515
root 4.97617 8.23993 17.1688 -115.116 3.20348 -175.131
lowerback 3.40905 2.68332 -7.67242
upperback -8.25754 3.83929 3.24736
thorax -11.6297 2.98934 7.28874
lowerneck -56.8091 10.7603 1.22879
upperneck -0.537644 7.42998 -6.86278
head 6.64227 -0.132504 -1.95573
rclavicle 3.18055e-014 3.02153e-014
rhumerus 11.8933 27.1967 -86.9222
rradius 22.1179
rwrist 30.2464
rhand -52.1122 358.954
rfingers 7.12502
rthumb -24.615 -29.4833
lclavicle 3.18055e-014 3.02153e-014
lhumerus 13.8652 -28.9699 82.5393
lradius 21.9276
lwrist 7.92884
lhand -49.629 -55.2631
lfingers 7.12502
lthumb -22.233 -26.5219
rfemur -167.046 14.3761 34.9246
rtibia 99.328
rfoot 6.86318 8.88328
rtoes 4.76427
lfemur 6.674 -15.4727 -19.7422
ltibia 0
lfoot -26.1094 -2.4069
ltoes -13.7266
1516
root 4.97594 8.23686 17.1636 -115.159 3.24701 -175.111
lowerback 3.42019 2.69803 -7.68246
upperback -8.26909 3.85855 3.24307
thorax -11.6545 3.00133 7.28595
lowerneck -56.8256 10.7452 1.22334
upperneck -0.493515 7.42668 -6.86027
head 6.65922 -0.130634 -1.95473
rclavicle 5.56597e-014 4.33351e-014
rhumerus 11.8224 27.199 -86.9622
rradius 22.1146
rwrist 30.2261
rhand -52.1 358.928
rfingers 7.12502
rthumb -24.6034 -29.5106
lclavicle 5.56597e-014 4.33351e-014
lhumerus 13.786 -28.9808 82.5862
lradius 21.9243
lwrist 7.92299
lhand -49.6241 -55.2461
lfingers 7.12502
lthumb -22.2282 -26.5043
rfemur -167.012 14.4097 34.9574
rtibia 99.3811
rfoot 6.84385 8.91072
rtoes 4.85712
lfemur 6.73618 -15.4394 -19.7928
ltibia 2.22639e-014
lfoot -26.1176 -2.43594
ltoes -13.7255
